<svg xmlns="http://www.w3.org/2000/svg" viewBox="0 0 128 128">
  <!-- Melonary - The Caramelo Dog Hero - Idle Pose -->
  
  <!-- Body -->
  <ellipse cx="64" cy="80" rx="30" ry="35" fill="#D2691E"/>
  <ellipse cx="64" cy="78" rx="26" ry="30" fill="#FFD700"/>
  
  <!-- Armor -->
  <path d="M45 65 L55 55 L73 55 L83 65 L83 90 L45 90 Z" fill="#2a2a2a"/>
  <path d="M50 60 L58 52 L70 52 L78 60 L78 85 L50 85 Z" fill="#3a3a3a"/>
  
  <!-- Gold Details -->
  <rect x="48" y="62" width="32" height="4" fill="#FFD700" rx="2"/>
  <rect x="48" y="78" width="32" height="4" fill="#FFD700" rx="2"/>
  <circle cx="64" cy="70" r="8" fill="#2a2a2a" stroke="#FFD700" stroke-width="2"/>
  
  <!-- Skull Emblem -->
  <circle cx="64" cy="70" r="5" fill="#FFD700"/>
  <circle cx="61" cy="69" r="1.5" fill="#2a2a2a"/>
  <circle cx="67" cy="69" r="1.5" fill="#2a2a2a"/>
  <rect x="62" y="72" width="4" height="2" fill="#2a2a2a"/>
  
  <!-- Head -->
  <ellipse cx="64" cy="35" rx="24" ry="22" fill="#D2691E"/>
  <ellipse cx="64" cy="36" rx="20" ry="18" fill="#FFD700"/>
  
  <!-- Ears -->
  <ellipse cx="42" cy="22" rx="8" ry="12" fill="#D2691E" transform="rotate(-20 42 22)"/>
  <ellipse cx="86" cy="22" rx="8" ry="12" fill="#D2691E" transform="rotate(20 86 22)"/>
  <ellipse cx="43" cy="23" rx="5" ry="8" fill="#E8A86E" transform="rotate(-20 43 23)"/>
  <ellipse cx="85" cy="23" rx="5" ry="8" fill="#E8A86E" transform="rotate(20 85 23)"/>
  
  <!-- Sunglasses -->
  <rect x="44" y="28" width="16" height="10" rx="3" fill="#1a1a2e"/>
  <rect x="68" y="28" width="16" height="10" rx="3" fill="#1a1a2e"/>
  <rect x="60" y="31" width="8" height="3" fill="#1a1a2e"/>
  <rect x="46" y="30" width="12" height="6" rx="2" fill="#2a4a6a"/>
  <rect x="70" y="30" width="12" height="6" rx="2" fill="#2a4a6a"/>
  
  <!-- Nose -->
  <ellipse cx="64" cy="44" rx="6" ry="4" fill="#2a2a2a"/>
  <ellipse cx="63" cy="43" rx="2" ry="1" fill="#4a4a4a"/>
  
  <!-- Mouth -->
  <path d="M52 50 Q64 58 76 50" stroke="#2a2a2a" stroke-width="2" fill="none"/>
  
  <!-- Arms -->
  <ellipse cx="38" cy="75" rx="8" ry="15" fill="#D2691E"/>
  <ellipse cx="90" cy="75" rx="8" ry="15" fill="#D2691E"/>
  <ellipse cx="38" cy="76" rx="6" ry="12" fill="#FFD700"/>
  <ellipse cx="90" cy="76" rx="6" ry="12" fill="#FFD700"/>
  
  <!-- Gold Bracelet -->
  <rect x="33" y="82" width="10" height="4" fill="#B8860B" rx="2"/>
  <rect x="85" y="82" width="10" height="4" fill="#B8860B" rx="2"/>
  
  <!-- Legs -->
  <rect x="50" y="105" width="10" height="18" fill="#1a1a2e" rx="3"/>
  <rect x="68" y="105" width="10" height="18" fill="#1a1a2e" rx="3"/>
  
  <!-- Feet -->
  <ellipse cx="55" cy="122" rx="8" ry="4" fill="#2a2a2a"/>
  <ellipse cx="73" cy="122" rx="8" ry="4" fill="#2a2a2a"/>
</svg>
