<svg xmlns="http://www.w3.org/2000/svg" viewBox="0 0 512 512">
  <defs>
    <linearGradient id="coinGrad" x1="0%" y1="0%" x2="100%" y2="100%">
      <stop offset="0%" stop-color="#FFD700"/>
      <stop offset="50%" stop-color="#FFA500"/>
      <stop offset="100%" stop-color="#FF8C00"/>
    </linearGradient>
    <linearGradient id="borderGrad" x1="0%" y1="0%" x2="100%" y2="100%">
      <stop offset="0%" stop-color="#DAA520"/>
      <stop offset="100%" stop-color="#B8860B"/>
    </linearGradient>
  </defs>
  <circle cx="256" cy="256" r="250" fill="url(#borderGrad)"/>
  <circle cx="256" cy="256" r="230" fill="url(#coinGrad)"/>
  <circle cx="256" cy="256" r="210" fill="#D2691E" opacity="0.3"/>
  <ellipse cx="180" cy="200" rx="35" ry="45" fill="#1a1a2e"/>
  <ellipse cx="332" cy="200" rx="35" ry="45" fill="#1a1a2e"/>
  <ellipse cx="185" cy="190" rx="12" ry="15" fill="#fff"/>
  <ellipse cx="337" cy="190" rx="12" ry="15" fill="#fff"/>
  <ellipse cx="256" cy="300" rx="50" ry="35" fill="#1a1a2e"/>
  <ellipse cx="256" cy="290" rx="25" ry="15" fill="#CD7F32"/>
  <path d="M150 340 Q256 400 362 340" stroke="#1a1a2e" stroke-width="12" fill="none" stroke-linecap="round"/>
  <ellipse cx="140" cy="160" rx="40" ry="60" fill="#D2691E" transform="rotate(-30 140 160)"/>
  <ellipse cx="372" cy="160" rx="40" ry="60" fill="#D2691E" transform="rotate(30 372 160)"/>
</svg>
