<svg xmlns="http://www.w3.org/2000/svg" viewBox="0 0 200 200">
  <!-- Cachorro caramelo dando voadora -->
  
  <!-- Corpo inclinado -->
  <ellipse cx="100" cy="100" rx="45" ry="35" fill="#D2691E" transform="rotate(-30 100 100)"/>
  <ellipse cx="100" cy="100" rx="40" ry="30" fill="#DEB887" transform="rotate(-30 100 100)"/>
  
  <!-- Cabeca -->
  <circle cx="130" cy="60" r="35" fill="#D2691E"/>
  <circle cx="130" cy="60" r="30" fill="#DEB887"/>
  
  <!-- Orelhas -->
  <ellipse cx="105" cy="35" rx="12" ry="20" fill="#D2691E" transform="rotate(-20 105 35)"/>
  <ellipse cx="155" cy="40" rx="12" ry="20" fill="#D2691E" transform="rotate(20 155 40)"/>
  
  <!-- Oculos escuros -->
  <rect x="100" y="50" width="60" height="22" rx="11" fill="#1a1a2e"/>
  <ellipse cx="115" cy="61" rx="14" ry="10" fill="#0f0f23"/>
  <ellipse cx="145" cy="61" rx="14" ry="10" fill="#0f0f23"/>
  <ellipse cx="112" cy="58" rx="4" ry="3" fill="#ffffff" opacity="0.3"/>
  <ellipse cx="142" cy="58" rx="4" ry="3" fill="#ffffff" opacity="0.3"/>
  
  <!-- Focinho -->
  <ellipse cx="130" cy="78" rx="10" ry="7" fill="#1a1a2e"/>
  
  <!-- Sorriso -->
  <path d="M118 88 Q130 98 142 88" stroke="#1a1a2e" stroke-width="3" fill="none"/>
  
  <!-- Pata traseira (apoio) -->
  <ellipse cx="60" cy="130" rx="15" ry="12" fill="#D2691E" transform="rotate(-45 60 130)"/>
  <ellipse cx="50" cy="140" rx="12" ry="8" fill="#1a1a2e"/>
  
  <!-- Pata dianteira (apoio) -->
  <ellipse cx="85" cy="135" rx="10" ry="15" fill="#D2691E" transform="rotate(20 85 135)"/>
  
  <!-- PERNA CHUTANDO - esticada -->
  <rect x="100" y="110" width="70" height="18" rx="9" fill="#D2691E" transform="rotate(-15 100 110)"/>
  <rect x="102" y="112" width="65" height="14" rx="7" fill="#DEB887" transform="rotate(-15 100 110)"/>
  
  <!-- Pata do chute -->
  <ellipse cx="168" cy="100" rx="18" ry="12" fill="#D2691E"/>
  <ellipse cx="168" cy="100" rx="14" ry="9" fill="#1a1a2e"/>
  
  <!-- Efeito de impacto -->
  <path d="M185 90 L195 85" stroke="#FFD700" stroke-width="3" stroke-linecap="round"/>
  <path d="M188 100 L200 100" stroke="#FFD700" stroke-width="3" stroke-linecap="round"/>
  <path d="M185 110 L195 115" stroke="#FFD700" stroke-width="3" stroke-linecap="round"/>
  
  <!-- Rabo empinado -->
  <path d="M55 85 Q40 70 50 55" stroke="#D2691E" stroke-width="10" fill="none" stroke-linecap="round"/>
</svg>
